<svg id="Logo_Vitamina" data-name="Logo Vitamina" xmlns="http://www.w3.org/2000/svg" viewBox="0 0 1900.56 805.2"><defs/><defs><style>.cls-1{fill:#3d90c0}.cls-2{fill:#f67900}</style></defs><g id="Letras"><path class="cls-1" d="M1100 384.94h-74.85v-5.49c0-32.24.15-64.47-.08-96.71-.09-11.38-.66-22.8-1.81-34.12-2.35-23.11-28.08-34.73-46.45-23.44a33.14 33.14 0 00-15.95 22.54c-2 9.4-2.29 19-2.29 28.51v108.1c-3.68.94-68 1.22-74.49.38V165h74.36c.33 8.44 0 16.95.23 26.25 1.53-1.39 2.44-2.13 3.24-3 9.86-10.34 21.43-18.15 35-22.56a82.76 82.76 0 0118.48-3.77c9.66-.79 19.39-.94 29.06.76a69.76 69.76 0 0130.74 13.13 81.81 81.81 0 0117.81 18.7c1.65 2.38 3.34 4.73 5.41 7.67 1.7-2.65 3.07-4.81 4.47-7a69.34 69.34 0 0116.9-18.18c8.19-6 17.07-11 27.23-13.32 18-4.07 35.7-4 53.22 2.53 14.5 5.42 24.8 15.16 31.44 29 6.74 14 9.41 29 9.45 44.37.1 41.8 0 83.6 0 125.4v19.33c-3.44 1-69.08 1.25-75 .25v-5.31c0-30.39.08-60.77 0-91.16 0-10.78-.32-21.58-1-32.34-.54-9-2.52-17.67-8.93-24.71a25.85 25.85 0 00-19.56-9 57.06 57.06 0 00-7.85.23c-11.5 1.47-18.9 8.22-23.42 18.54-4 9.21-5.25 19-5.29 28.89-.13 36.4-.11 72.8-.15 109.2zM833.25 384.87h-74.76v-23.24c-3.42 3.28-6.09 5.7-8.61 8.28-13.09 13.39-29.25 20.1-47.66 21.83-21.37 2-41.72-2.06-60.06-12.94a109.53 109.53 0 01-48-57.42c-6.06-16.3-8.1-33.08-7.93-50.35a126.23 126.23 0 0111.23-51.54A83.06 83.06 0 01611.94 197c5.55-6 11.1-12 17.18-17.45 12.39-11.06 27.24-17.34 43.46-20.21a104 104 0 0145.39 1.5 73.94 73.94 0 0127.6 13.53c3.24 2.6 6.33 5.39 9.5 8.07.78.65 1.63 1.23 3.17 2.39v-19.21c3.91-1 69.79-1.21 75-.28zM664.5 272.45c0 14.6 3.23 26.07 12.15 35.42a75.7 75.7 0 008.78 8.12c8.24 6.26 17.73 9.61 28 9.15 18.77-.84 32.69-10.18 41.49-26.52 6.8-12.63 7.62-26.15 3.14-39.86-5-15.28-14.82-26.06-30-31.75-5.42-2-11.09-2.41-16.85-2.32-17.66.26-30.43 9.08-39.59 23.34-4.99 7.87-7.42 16.87-7.12 24.42zM1835.53 185.23v-20.17H1909c1.06 3.17 1.55 210.06.47 219.73h-73.77V361.7c-3.73 3.53-6.74 6.24-9.6 9.1a69.13 69.13 0 01-28.1 17.09c-20.81 6.71-41.51 5.67-61.75-1.54-31.9-11.36-53-34-64.89-65.33-10.1-26.5-10.41-53.77-4-81 4.08-17.22 11.91-33 24.39-46.07 7-7.39 13.79-15 22.45-20.56a96.09 96.09 0 0136.31-14.23 109.65 109.65 0 0138.2.15c12.3 2.22 23.67 6.85 33.53 14.71 3.74 3 7.27 6.21 10.89 9.32.56.5 1.14.92 2.4 1.89zm2.3 89.91a49.1 49.1 0 00-3.3-18.56c-4.31-11.94-12.08-21.41-23.36-26.9-22.79-11.09-47.37-4.46-62.26 17.88-7.78 11.67-9.35 25.09-6.29 38.66 3.36 14.92 12.34 25.94 25.74 33.29a42.46 42.46 0 0033.06 3.94 49.28 49.28 0 0026.39-18.23c6.87-9.04 9.51-19.13 10.02-30.08zM1485.21 384.94h-74.59c-1-3.53-1.13-214.87-.16-219.89h74.66v26.49c1.59-1.57 2.48-2.3 3.19-3.18a78.18 78.18 0 0129.34-22.72c7.1-3.17 14.7-4.52 22.42-5.12 11.26-.87 22.5-.86 33.63 1.42 12 2.45 22.85 7.11 32.23 15.17 9.75 8.38 17.93 17.87 22.35 30.1a88.1 88.1 0 014.8 29.53c.27 42.1.3 84.2.41 126.3v21.14c-3.4 1.13-67.58 1.49-75 .43v-5.3c0-33.32.1-66.63-.07-99.94 0-8.92-.88-17.84-1.48-26.75a53.25 53.25 0 00-1.21-6.82c-2.86-14.36-12.42-22.12-26.53-23.59a46.3 46.3 0 00-24.81 4c-6.22 2.92-10.33 7.79-13.44 13.5a47 47 0 00-5.75 23c.15 38.71 0 77.42 0 116.14zM278.42 164.88c-36.8 73.79-73.27 146.88-109.76 220H118.1Q63.88 275.41 9.52 165.67c3.39-1.11 74.67-1.54 83.87-.57l50.11 112.25c17.34-38.08 34.28-75.3 51.21-112.47zM422.32 164.69h24.25V99.33h74.85c.25 5.2.07 10.53.11 15.86v49.45h42.16v65.14c-13.75.46-27.58-.06-42 .3-.28 5.86-.1 11.51-.13 17.14s0 11.42 0 17.12v120.49h-74.9V230h-24.34zM1361.27 384.94h-73.8c-1-3.47-1.17-214.76-.18-219.89h74zM378.77 165.09v219.72h-74.15V165.09z" transform="translate(-9.52 -16.8)"/></g><g id="Sonrisa"><path class="cls-2" d="M322.65 481.09l34.69-20.66c.94 1.27 1.71 2.2 2.35 3.21a688.64 688.64 0 0058.45 78.1 705.78 705.78 0 0071.58 71.65 724.12 724.12 0 0092.26 68 553.13 553.13 0 00108.66 52A430 430 0 00764 752.14a484.61 484.61 0 0058.85 6.13 385 385 0 0051.76-1.43 477.33 477.33 0 0096.82-19.52 524.56 524.56 0 0064.44-25.48c31.12-14.48 60.49-32 88.71-51.44a555.25 555.25 0 0048.91-38.06c10.94-9.48 22-18.85 32.67-28.6 6.82-6.22 13.11-13 19.59-19.61 5.07-5.15 10.24-10.23 15.06-15.62 7.18-8 14.08-16.31 21.12-24.47 1.91-2.21 4-4.31 5.82-6.56q22.41-27.12 42.2-56.19c2.42-3.55 5-7 7.72-10.94l34.82 20.7c-.67 1.6-1.1 2.89-1.73 4.07-8.33 15.64-16.87 31.17-25 46.92-10.29 19.94-23 38.32-36.06 56.46a535.43 535.43 0 01-72.49 82 695.65 695.65 0 01-65.87 53.12c-11.08 7.93-22.92 14.5-34.47 21.6a453.58 453.58 0 01-74.83 37.2c-13.93 5.37-27.91 10.69-42.11 15.29a386.58 386.58 0 01-48 12.06c-9.85 1.84-19.64 4-29.53 5.6-9.27 1.5-18.61 2.71-28 3.6-10.59 1-21.21 1.65-31.84 2.21-17.25.91-34.53 1.34-51.78-.06s-34.52-2.14-51.58-4.59a544.57 544.57 0 01-73.73-15.41 565.7 565.7 0 01-73.72-27.05 548.52 548.52 0 01-70.23-38.18 590.42 590.42 0 01-98.43-78.79 533.36 533.36 0 01-68.45-82.47 618.1 618.1 0 01-50.42-89.32c-.44-1.26-.9-2.55-1.57-4.22zM412.1 62.87l-35 20.85c-8.37-12-20.12-17.13-34.44-17-14 .12-25.91 4.52-34.44 16.92l-34.33-20.45C286.85 34.75 313.13 16.65 343 17c32.49.32 53.69 18.23 69.1 45.87zM1357.65 83.56c-15.39-23.35-55.29-21.72-69.05 0l-34.33-20.38c7.47-15.5 17.76-27.88 32.58-36.39 20.69-11.86 42.2-12.92 64-4.44 14.54 5.66 25.87 15.94 34.58 28.94 2.39 3.57 4.57 7.27 7.18 11.44-11.78 7.27-23.36 14.07-34.96 20.83z" transform="translate(-9.52 -16.8)"/></g></svg>